<?xml version="1.0" encoding="UTF-8" standalone="no"?>
<svg
   xmlns:dc="http://purl.org/dc/elements/1.1/"
   xmlns:cc="http://creativecommons.org/ns#"
   xmlns:rdf="http://www.w3.org/1999/02/22-rdf-syntax-ns#"
   xmlns:svg="http://www.w3.org/2000/svg"
   xmlns="http://www.w3.org/2000/svg"
   width="80.553017mm"
   height="8.0050001mm"
   viewBox="0 0 80.553017 8.0050001"
   version="1.1"
   id="svg8">
  <defs
     id="defs2" />
  <metadata
     id="metadata5">
    <rdf:RDF>
      <cc:Work
         rdf:about="">
        <dc:format>image/svg+xml</dc:format>
        <dc:type
           rdf:resource="http://purl.org/dc/dcmitype/StillImage" />
        <dc:title></dc:title>
      </cc:Work>
    </rdf:RDF>
  </metadata>
  <g
     id="layer1"
     transform="translate(-25.707067,-46.60379)">
    <g
       aria-label="brandisbrandisbrand.com"
       id="text12"
       style="font-style:normal;font-variant:normal;font-weight:normal;font-stretch:normal;font-size:10.5833px;line-height:1.25;font-family:'Annie Use Your Telescope';-inkscape-font-specification:'Annie Use Your Telescope';fill:#000000;fill-opacity:1;stroke:none;stroke-width:0.264583">
      <path
         d="m 26.110162,47.837125 q 0.04134,0.372069 0.08268,0.82682 0.05168,0.444416 0.08268,0.919838 0.03101,0.465086 0.04134,0.940508 0.01034,0.465086 -0.01034,0.878496 0.165365,-0.144693 0.299723,-0.248046 0.144693,-0.113687 0.279052,-0.196369 0.144693,-0.08268 0.279051,-0.124023 0.144694,-0.04134 0.330729,-0.04134 0.372069,0 0.682126,0.186035 0.310058,0.175699 0.527098,0.475422 0.217041,0.289387 0.330728,0.651121 0.124023,0.351398 0.124023,0.692462 -0.02067,0.578774 -0.23771,0.930173 -0.217041,0.341063 -0.578775,0.527097 -0.351398,0.186035 -0.837155,0.217041 -0.475422,0.03101 -1.00252,-0.01033 v -0.485757 q 0.186035,0.165364 0.341064,0.196369 0.155028,0.02067 0.372069,0.02067 0.341063,0 0.620115,-0.103353 0.279052,-0.103352 0.475422,-0.289387 0.206705,-0.19637 0.310057,-0.465086 0.113688,-0.268717 0.113688,-0.58911 0,-0.279051 -0.03101,-0.496092 -0.03101,-0.21704 -0.144693,-0.392739 -0.103353,-0.1757 -0.310058,-0.330729 -0.206705,-0.165364 -0.558104,-0.320392 -0.02067,-0.01034 -0.09302,-0.01034 -0.07235,-0.01033 -0.103352,-0.01033 -0.165364,0 -0.330729,0.103353 -0.165364,0.09302 -0.299722,0.248046 -0.134358,0.144693 -0.227375,0.330728 -0.09302,0.175699 -0.134359,0.330728 -0.02067,0.124023 -0.06201,0.444416 -0.03101,0.310057 -0.08268,0.671791 -0.04134,0.361734 -0.07235,0.682127 -0.03101,0.320393 -0.05168,0.444416 l -0.320393,-0.06201 -0.206705,-6.542215 z"
         style="font-style:normal;font-variant:normal;font-weight:normal;font-stretch:normal;font-family:'Annie Use Your Telescope';-inkscape-font-specification:'Annie Use Your Telescope';stroke-width:0.264583"
         id="path14" />
      <path
         d="m 29.572472,50.544961 q 0.124023,-0.05168 0.21704,-0.02067 0.09302,0.03101 0.155029,0.113688 0.06201,0.08268 0.09302,0.19637 0.03101,0.103352 0.05168,0.206705 0.134358,-0.227376 0.382405,-0.361734 0.258381,-0.144694 0.547768,-0.186035 0.289387,-0.05168 0.578774,-0.02067 0.289387,0.02067 0.485757,0.124023 0.206705,0.09302 0.289387,0.268716 0.08268,0.165364 -0.04134,0.39274 -0.268716,-0.155029 -0.568439,-0.248046 -0.289387,-0.09302 -0.568439,-0.06201 -0.279052,0.03101 -0.516762,0.217041 -0.237711,0.175699 -0.39274,0.568439 -0.155029,0.392739 -0.19637,1.04386 -0.03101,0.640786 0.09302,1.601964 h -0.392739 q 0,0 -0.02067,-0.165364 -0.01033,-0.175699 -0.031,-0.454751 -0.01034,-0.279052 -0.04134,-0.620115 -0.02067,-0.341063 -0.04134,-0.692462 -0.02067,-0.351399 -0.04134,-0.671791 -0.01034,-0.330729 -0.03101,-0.568439 0,-0.03101 -0.01033,-0.124023 0,-0.09302 0,-0.19637 0,-0.113688 0,-0.206705 0,-0.09302 0,-0.134359 z"
         style="font-style:normal;font-variant:normal;font-weight:normal;font-stretch:normal;font-family:'Annie Use Your Telescope';-inkscape-font-specification:'Annie Use Your Telescope';stroke-width:0.264583"
         id="path16" />
      <path
         d="m 32.797071,53.686878 q 0,-0.589109 0.320393,-0.857826 0.330728,-0.268716 0.857826,-0.268716 0.206705,0 0.382404,0.01033 0.186035,0.01034 0.351399,0.05168 0.165364,0.04134 0.320392,0.124023 0.165364,0.08268 0.341064,0.237711 0,-0.03101 0,-0.124023 0.01034,-0.103352 0.01034,-0.21704 0,-0.113688 0,-0.206705 0,-0.103353 0,-0.144694 -0.01034,-0.186034 -0.01034,-0.475421 0,-0.299723 -0.05168,-0.60978 -0.04134,-0.310058 -0.186035,-0.58911 -0.134358,-0.279052 -0.444416,-0.423745 -0.21704,0 -0.403075,0.07235 -0.186034,0.07235 -0.372069,0.155028 -0.186035,0.08268 -0.372069,0.155029 -0.186035,0.06201 -0.403075,0.06201 0,-0.258382 0.155029,-0.423746 0.165364,-0.175699 0.392739,-0.268716 0.227376,-0.09302 0.475422,-0.124023 0.248046,-0.03101 0.434081,-0.03101 0.186034,0.03101 0.341063,0.07235 0.165364,0.04134 0.299723,0.165364 0.144693,0.124023 0.258381,0.382404 0.124023,0.248046 0.206705,0.702797 0.09302,0.454752 0.155029,1.157549 0.07235,0.692462 0.113688,1.705317 0.02067,0.134358 -0.09302,0.23771 -0.103352,0.09302 -0.289387,0.165364 -0.186034,0.06201 -0.423745,0.113688 -0.227376,0.04134 -0.465087,0.06201 -0.237711,0.02067 -0.454751,0.03101 -0.21704,0.01033 -0.361734,0.01033 -0.186034,0 -0.382404,-0.06201 -0.186035,-0.06201 -0.351399,-0.175699 -0.155029,-0.124023 -0.258381,-0.289387 -0.09302,-0.175699 -0.09302,-0.382405 z m 1.343583,-0.723467 q -0.516763,0.144693 -0.723468,0.351398 -0.206705,0.19637 -0.186035,0.382405 0.03101,0.186034 0.248046,0.341063 0.217041,0.144694 0.527098,0.19637 0.310058,0.04134 0.671792,-0.05168 0.361734,-0.103353 0.692462,-0.39274 -0.124023,-0.299722 -0.248046,-0.454751 -0.124023,-0.165364 -0.268717,-0.248046 -0.144693,-0.08268 -0.320393,-0.103353 -0.175699,-0.02067 -0.392739,-0.02067 z"
         style="font-style:normal;font-variant:normal;font-weight:normal;font-stretch:normal;font-family:'Annie Use Your Telescope';-inkscape-font-specification:'Annie Use Your Telescope';stroke-width:0.264583"
         id="path18" />
      <path
         d="m 36.528097,54.524034 q -0.02067,-0.165364 -0.04134,-0.475422 -0.01033,-0.320392 -0.03101,-0.713132 -0.01034,-0.403075 -0.02067,-0.837156 -0.01033,-0.43408 -0.02067,-0.82682 -0.01034,-0.39274 -0.03101,-0.702797 -0.01033,-0.320393 -0.04134,-0.485757 0,-0.01034 -0.01034,-0.05168 0,-0.04134 -0.01033,-0.09302 0,-0.05168 0,-0.08268 0,-0.04134 0,-0.06201 0.155029,-0.124023 0.258382,-0.08268 0.113687,0.04134 0.186034,0.186034 0.07235,0.134359 0.103353,0.341064 0.03101,0.206705 0.04134,0.41341 0.02067,0.206705 0.02067,0.382404 0,0.165364 0,0.237711 0.02067,-0.175699 0.06201,-0.41341 0.04134,-0.237711 0.124023,-0.485757 0.08268,-0.248046 0.19637,-0.485757 0.124023,-0.248046 0.299722,-0.434081 0.175699,-0.186034 0.39274,-0.289387 0.227375,-0.103352 0.516762,-0.08268 0.454751,0.02067 0.744138,0.248046 0.299723,0.227376 0.465087,0.60978 0.175699,0.382405 0.248046,0.878497 0.08268,0.496092 0.103353,1.054196 0.03101,0.558103 0.02067,1.136878 -0.01033,0.568439 -0.01033,1.095537 -0.09302,0.02067 -0.186035,0.07235 -0.09302,0.04134 -0.155029,0.03101 -0.06201,0 -0.09302,-0.08268 -0.02067,-0.09302 0.02067,-0.351399 0.01034,-0.186034 0.03101,-0.568439 0.03101,-0.392739 0.02067,-0.868161 0,-0.475421 -0.05168,-0.981849 -0.05168,-0.506427 -0.19637,-0.919837 -0.134358,-0.423746 -0.39274,-0.682127 -0.258381,-0.268717 -0.671791,-0.268717 -0.423746,0.175699 -0.713133,0.661456 -0.279052,0.485757 -0.454751,1.136878 -0.165364,0.651121 -0.248046,1.41593 -0.07235,0.754474 -0.08268,1.477941 -0.02067,-0.01033 -0.08268,-0.01033 -0.05168,0 -0.124023,0 -0.06201,-0.01034 -0.124023,-0.02067 -0.05168,-0.01034 -0.06201,-0.02067 z"
         style="font-style:normal;font-variant:normal;font-weight:normal;font-stretch:normal;font-family:'Annie Use Your Telescope';-inkscape-font-specification:'Annie Use Your Telescope';stroke-width:0.264583"
         id="path20" />
      <path
         d="m 40.393482,53.077099 q 0,-0.279052 0.09302,-0.60978 0.09302,-0.341064 0.268717,-0.620116 0.175699,-0.289387 0.423745,-0.475421 0.248046,-0.186035 0.578775,-0.186035 0.248046,0 0.43408,0.05168 0.19637,0.04134 0.361734,0.155029 0.175699,0.103353 0.320393,0.258382 0.155029,0.144693 0.320393,0.341063 l -0.06201,-5.301985 q 0.279052,-0.103353 0.341064,-0.08268 0.07235,0.02067 0.07235,0.175699 0,0.02067 -0.01034,0.06201 0,0.04134 0,0.05168 -0.01033,0.19637 -0.02067,0.558104 0,0.361733 0,0.837155 0.01033,0.475422 0.02067,1.033525 0.01034,0.547769 0.02067,1.116208 0.01034,0.558104 0.02067,1.116207 0.02067,0.547769 0.02067,1.02319 0.01033,0.475422 0,0.847491 0,0.361734 -0.01034,0.547769 -0.113687,0.23771 -0.320392,0.361733 -0.19637,0.124024 -0.434081,0.186035 -0.227376,0.05168 -0.475422,0.06201 -0.248046,0.01033 -0.465086,0.01033 -0.692462,0 -1.095537,-0.403075 Q 40.39348,53.779897 40.39348,53.0771 Z m 0.41341,-0.279052 q 0,0.258381 0.04134,0.516762 0.04134,0.248046 0.144694,0.444416 0.103352,0.19637 0.289387,0.320393 0.186034,0.113688 0.475422,0.113688 0.175699,0 0.423745,0 0.248046,0 0.475422,-0.05168 0.227375,-0.06201 0.382404,-0.186035 0.155029,-0.124023 0.155029,-0.351399 0,-0.268716 -0.08268,-0.609779 -0.07235,-0.351399 -0.237711,-0.661457 -0.155029,-0.320393 -0.403075,-0.537433 -0.237711,-0.227375 -0.568439,-0.227375 -0.21704,0 -0.41341,0.113687 -0.19637,0.113688 -0.351399,0.289387 -0.144693,0.1757 -0.23771,0.39274 -0.09302,0.21704 -0.09302,0.434081 z"
         style="font-style:normal;font-variant:normal;font-weight:normal;font-stretch:normal;font-family:'Annie Use Your Telescope';-inkscape-font-specification:'Annie Use Your Telescope';stroke-width:0.264583"
         id="path22" />
      <path
         d="m 44.506913,50.565632 q 0.124023,0 0.206705,-0.01033 0.09302,-0.01034 0.155029,0.103352 0.03101,0.465087 0.07235,0.950844 0.04134,0.475421 0.08268,0.961178 0.04134,0.485757 0.05168,0.981849 0.02067,0.485757 0.01033,0.950844 0,0.06201 -0.03101,0.07235 -0.03101,0.02067 -0.09302,0.01034 -0.05168,0 -0.134358,-0.01034 -0.07235,0 -0.165364,0.02067 z m -0.599445,-1.85001 q 0,-0.07235 0.01034,-0.155029 0.01034,-0.09302 0.04134,-0.165364 0.04134,-0.07235 0.09302,-0.124023 0.06201,-0.05168 0.144694,-0.05168 0.124023,0 0.248046,0.01034 0.124023,0.01034 0.237711,0.05168 0.113687,0.03101 0.186034,0.113688 0.07235,0.07235 0.07235,0.21704 0,0.248046 -0.186035,0.444416 -0.186034,0.186034 -0.454751,0.186034 -0.206705,0 -0.299722,-0.155028 -0.09302,-0.165364 -0.09302,-0.372069 z m 0.599445,0.05168 q -0.03101,0 -0.03101,0.05168 0,0.05168 0.03101,0.05168 0.04134,0 0.04134,-0.05168 0,-0.05168 -0.04134,-0.05168 z"
         style="font-style:normal;font-variant:normal;font-weight:normal;font-stretch:normal;font-family:'Annie Use Your Telescope';-inkscape-font-specification:'Annie Use Your Telescope';stroke-width:0.264583"
         id="path24" />
      <path
         d="m 46.057201,53.738555 q 0.186034,0 0.341063,0.07235 0.165364,0.07235 0.320393,0.165364 0.155029,0.08268 0.310058,0.155028 0.165364,0.06201 0.351398,0.06201 0.217041,0 0.444416,-0.07235 0.237711,-0.08268 0.434081,-0.21704 0.19637,-0.144694 0.320393,-0.341064 0.124023,-0.206705 0.124023,-0.444415 0.01033,-0.07235 0,-0.1757 0,-0.103352 -0.06201,-0.206705 -0.06201,-0.113688 -0.206705,-0.206705 -0.144693,-0.103352 -0.423745,-0.155029 -0.268717,-0.05168 -0.682127,-0.05168 -0.41341,-0.01034 -1.02319,0.07235 -0.155029,0 -0.299722,-0.08268 -0.144694,-0.09302 -0.258382,-0.217041 -0.113687,-0.134358 -0.186034,-0.279051 -0.07235,-0.155029 -0.07235,-0.289388 0,-0.403074 0.165364,-0.65112 0.175699,-0.258382 0.444416,-0.403075 0.268717,-0.155029 0.599445,-0.217041 0.330728,-0.06201 0.671791,-0.06201 0.155029,0 0.351399,0.02067 0.206705,0.01034 0.372069,0.08268 0.175699,0.06201 0.289387,0.206705 0.124023,0.144694 0.124023,0.403075 -0.02067,0.1757 -0.06201,0.217041 -0.031,0.03101 -0.103352,-0.02067 -0.06201,-0.06201 -0.155029,-0.165364 -0.09302,-0.103352 -0.227375,-0.19637 -0.124023,-0.103352 -0.310058,-0.155029 -0.175699,-0.05168 -0.403075,0 -0.237711,0 -0.475422,0.05168 -0.23771,0.04134 -0.43408,0.155028 -0.186035,0.113688 -0.310058,0.310058 -0.113688,0.19637 -0.113688,0.496092 0,0.155029 0.134359,0.217041 0.144693,0.05168 0.372069,0.05168 0.237711,0 0.527098,-0.01033 0.299722,-0.02067 0.60978,-0.02067 0.310057,0 0.599444,0.05168 0.289387,0.04134 0.506428,0.186035 0.227375,0.134358 0.351398,0.39274 0.124023,0.258381 0.09302,0.671791 0,0.299722 -0.1757,0.568439 -0.165364,0.268717 -0.43408,0.475422 -0.258382,0.196369 -0.578774,0.310057 -0.320393,0.113688 -0.620116,0.08268 -0.124023,-0.01033 -0.341063,-0.06201 -0.206705,-0.06201 -0.41341,-0.165364 -0.19637,-0.103353 -0.341064,-0.248046 -0.144693,-0.155029 -0.144693,-0.361734 z"
         style="font-style:normal;font-variant:normal;font-weight:normal;font-stretch:normal;font-family:'Annie Use Your Telescope';-inkscape-font-specification:'Annie Use Your Telescope';stroke-width:0.264583"
         id="path26" />
      <path
         d="m 49.932921,47.837125 q 0.04134,0.372069 0.08268,0.82682 0.05168,0.444416 0.08268,0.919838 0.03101,0.465086 0.04134,0.940508 0.01034,0.465086 -0.01033,0.878496 0.165364,-0.144693 0.299722,-0.248046 0.144694,-0.113687 0.279052,-0.196369 0.144694,-0.08268 0.279052,-0.124023 0.144694,-0.04134 0.330728,-0.04134 0.372069,0 0.682127,0.186035 0.310058,0.175699 0.527098,0.475422 0.21704,0.289387 0.330728,0.651121 0.124023,0.351398 0.124023,0.692462 -0.02067,0.578774 -0.237711,0.930173 -0.21704,0.341063 -0.578774,0.527097 -0.351399,0.186035 -0.837156,0.217041 -0.475421,0.03101 -1.002519,-0.01033 v -0.485757 q 0.186034,0.165364 0.341063,0.196369 0.155029,0.02067 0.372069,0.02067 0.341064,0 0.620116,-0.103353 0.279051,-0.103352 0.475421,-0.289387 0.206705,-0.19637 0.310058,-0.465086 0.113688,-0.268717 0.113688,-0.58911 0,-0.279051 -0.03101,-0.496092 -0.03101,-0.21704 -0.144694,-0.392739 -0.103352,-0.1757 -0.310057,-0.330729 -0.206705,-0.165364 -0.558104,-0.320392 -0.02067,-0.01034 -0.09302,-0.01034 -0.07235,-0.01033 -0.103353,-0.01033 -0.165364,0 -0.330728,0.103353 -0.165364,0.09302 -0.299722,0.248046 -0.134359,0.144693 -0.227376,0.330728 -0.09302,0.175699 -0.134358,0.330728 -0.02067,0.124023 -0.06201,0.444416 -0.03101,0.310057 -0.08268,0.671791 -0.04134,0.361734 -0.07235,0.682127 -0.03101,0.320393 -0.05168,0.444416 l -0.320393,-0.06201 -0.206705,-6.542215 z"
         style="font-style:normal;font-variant:normal;font-weight:normal;font-stretch:normal;font-family:'Annie Use Your Telescope';-inkscape-font-specification:'Annie Use Your Telescope';stroke-width:0.264583"
         id="path28" />
      <path
         d="m 53.39523,50.544961 q 0.124023,-0.05168 0.217041,-0.02067 0.09302,0.03101 0.155028,0.113688 0.06201,0.08268 0.09302,0.19637 0.03101,0.103352 0.05168,0.206705 0.134358,-0.227376 0.382404,-0.361734 0.258382,-0.144694 0.547769,-0.186035 0.289387,-0.05168 0.578774,-0.02067 0.289387,0.02067 0.485757,0.124023 0.206705,0.09302 0.289387,0.268716 0.08268,0.165364 -0.04134,0.39274 -0.268717,-0.155029 -0.568439,-0.248046 -0.289387,-0.09302 -0.568439,-0.06201 -0.279052,0.03101 -0.516763,0.217041 -0.237711,0.175699 -0.392739,0.568439 -0.155029,0.392739 -0.19637,1.04386 -0.03101,0.640786 0.09302,1.601964 h -0.392739 q 0,0 -0.02067,-0.165364 -0.01033,-0.175699 -0.03101,-0.454751 -0.01034,-0.279052 -0.04134,-0.620115 -0.02067,-0.341063 -0.04134,-0.692462 -0.02067,-0.351399 -0.04134,-0.671791 -0.01033,-0.330729 -0.03101,-0.568439 0,-0.03101 -0.01034,-0.124023 0,-0.09302 0,-0.19637 0,-0.113688 0,-0.206705 0,-0.09302 0,-0.134359 z"
         style="font-style:normal;font-variant:normal;font-weight:normal;font-stretch:normal;font-family:'Annie Use Your Telescope';-inkscape-font-specification:'Annie Use Your Telescope';stroke-width:0.264583"
         id="path30" />
      <path
         d="m 56.61983,53.686878 q 0,-0.589109 0.320393,-0.857826 0.330728,-0.268716 0.857826,-0.268716 0.206705,0 0.382404,0.01033 0.186035,0.01034 0.351399,0.05168 0.165364,0.04134 0.320393,0.124023 0.165364,0.08268 0.341063,0.237711 0,-0.03101 0,-0.124023 0.01033,-0.103352 0.01033,-0.21704 0,-0.113688 0,-0.206705 0,-0.103353 0,-0.144694 -0.01033,-0.186034 -0.01033,-0.475421 0,-0.299723 -0.05168,-0.60978 -0.04134,-0.310058 -0.186035,-0.58911 -0.134358,-0.279052 -0.444416,-0.423745 -0.21704,0 -0.403075,0.07235 -0.186034,0.07235 -0.372069,0.155028 -0.186034,0.08268 -0.372069,0.155029 -0.186034,0.06201 -0.403075,0.06201 0,-0.258382 0.155029,-0.423746 0.165364,-0.175699 0.39274,-0.268716 0.227375,-0.09302 0.475421,-0.124023 0.248046,-0.03101 0.434081,-0.03101 0.186035,0.03101 0.341063,0.07235 0.165364,0.04134 0.299723,0.165364 0.144693,0.124023 0.258381,0.382404 0.124023,0.248046 0.206705,0.702797 0.09302,0.454752 0.155029,1.157549 0.07235,0.692462 0.113688,1.705317 0.02067,0.134358 -0.09302,0.23771 -0.103352,0.09302 -0.289387,0.165364 -0.186034,0.06201 -0.423745,0.113688 -0.227376,0.04134 -0.465087,0.06201 -0.23771,0.02067 -0.454751,0.03101 -0.21704,0.01033 -0.361734,0.01033 -0.186034,0 -0.382404,-0.06201 -0.186034,-0.06201 -0.351399,-0.175699 -0.155028,-0.124023 -0.258381,-0.289387 -0.09302,-0.175699 -0.09302,-0.382405 z m 1.343583,-0.723467 q -0.516763,0.144693 -0.723468,0.351398 -0.206705,0.19637 -0.186035,0.382405 0.03101,0.186034 0.248047,0.341063 0.21704,0.144694 0.527097,0.19637 0.310058,0.04134 0.671792,-0.05168 0.361734,-0.103353 0.692462,-0.39274 -0.124023,-0.299722 -0.248046,-0.454751 -0.124023,-0.165364 -0.268717,-0.248046 -0.144693,-0.08268 -0.320393,-0.103353 -0.175699,-0.02067 -0.392739,-0.02067 z"
         style="font-style:normal;font-variant:normal;font-weight:normal;font-stretch:normal;font-family:'Annie Use Your Telescope';-inkscape-font-specification:'Annie Use Your Telescope';stroke-width:0.264583"
         id="path32" />
      <path
         d="m 60.350857,54.524034 q -0.02067,-0.165364 -0.04134,-0.475422 -0.01034,-0.320392 -0.03101,-0.713132 -0.01033,-0.403075 -0.02067,-0.837156 -0.01034,-0.43408 -0.02067,-0.82682 -0.01034,-0.39274 -0.03101,-0.702797 -0.01033,-0.320393 -0.04134,-0.485757 0,-0.01034 -0.01033,-0.05168 0,-0.04134 -0.01034,-0.09302 0,-0.05168 0,-0.08268 0,-0.04134 0,-0.06201 0.155029,-0.124023 0.258381,-0.08268 0.113688,0.04134 0.186035,0.186034 0.07235,0.134359 0.103352,0.341064 0.03101,0.206705 0.04134,0.41341 0.02067,0.206705 0.02067,0.382404 0,0.165364 0,0.237711 0.02067,-0.175699 0.06201,-0.41341 0.04134,-0.237711 0.124023,-0.485757 0.08268,-0.248046 0.19637,-0.485757 0.124023,-0.248046 0.299723,-0.434081 0.175699,-0.186034 0.392739,-0.289387 0.227376,-0.103352 0.516763,-0.08268 0.454751,0.02067 0.744138,0.248046 0.299722,0.227376 0.465087,0.60978 0.175699,0.382405 0.248046,0.878497 0.08268,0.496092 0.103352,1.054196 0.03101,0.558103 0.02067,1.136878 -0.01034,0.568439 -0.01034,1.095537 -0.09302,0.02067 -0.186034,0.07235 -0.09302,0.04134 -0.155029,0.03101 -0.06201,0 -0.09302,-0.08268 -0.02067,-0.09302 0.02067,-0.351399 0.01034,-0.186034 0.03101,-0.568439 0.03101,-0.392739 0.02067,-0.868161 0,-0.475421 -0.05168,-0.981849 -0.05168,-0.506427 -0.19637,-0.919837 -0.134358,-0.423746 -0.392739,-0.682127 -0.258382,-0.268717 -0.671792,-0.268717 -0.423745,0.175699 -0.713132,0.661456 -0.279052,0.485757 -0.454751,1.136878 -0.165364,0.651121 -0.248046,1.41593 -0.07235,0.754474 -0.08268,1.477941 -0.02067,-0.01033 -0.08268,-0.01033 -0.05168,0 -0.124024,0 -0.06201,-0.01034 -0.124023,-0.02067 -0.05168,-0.01034 -0.06201,-0.02067 z"
         style="font-style:normal;font-variant:normal;font-weight:normal;font-stretch:normal;font-family:'Annie Use Your Telescope';-inkscape-font-specification:'Annie Use Your Telescope';stroke-width:0.264583"
         id="path34" />
      <path
         d="m 64.21624,53.077099 q 0,-0.279052 0.09302,-0.60978 0.09302,-0.341064 0.268717,-0.620116 0.175699,-0.289387 0.423745,-0.475421 0.248046,-0.186035 0.578774,-0.186035 0.248046,0 0.434081,0.05168 0.19637,0.04134 0.361734,0.155029 0.175699,0.103353 0.320393,0.258382 0.155028,0.144693 0.320393,0.341063 l -0.06201,-5.301985 q 0.279052,-0.103353 0.341063,-0.08268 0.07235,0.02067 0.07235,0.175699 0,0.02067 -0.01033,0.06201 0,0.04134 0,0.05168 -0.01034,0.19637 -0.02067,0.558104 0,0.361733 0,0.837155 0.01034,0.475422 0.02067,1.033525 0.01033,0.547769 0.02067,1.116208 0.01034,0.558104 0.02067,1.116207 0.02067,0.547769 0.02067,1.02319 0.01034,0.475422 0,0.847491 0,0.361734 -0.01033,0.547769 -0.113688,0.23771 -0.320393,0.361733 -0.196369,0.124024 -0.43408,0.186035 -0.227376,0.05168 -0.475422,0.06201 -0.248046,0.01033 -0.465086,0.01033 -0.692462,0 -1.095537,-0.403075 -0.403075,-0.41341 -0.403075,-1.116207 z m 0.41341,-0.279052 q 0,0.258381 0.04134,0.516762 0.04134,0.248046 0.144694,0.444416 0.103352,0.19637 0.289387,0.320393 0.186034,0.113688 0.475421,0.113688 0.1757,0 0.423746,0 0.248046,0 0.475421,-0.05168 0.227376,-0.06201 0.382405,-0.186035 0.155029,-0.124023 0.155029,-0.351399 0,-0.268716 -0.08268,-0.609779 -0.07235,-0.351399 -0.237711,-0.661457 -0.155029,-0.320393 -0.403075,-0.537433 -0.237711,-0.227375 -0.568439,-0.227375 -0.21704,0 -0.41341,0.113687 -0.19637,0.113688 -0.351399,0.289387 -0.144693,0.1757 -0.237711,0.39274 -0.09302,0.21704 -0.09302,0.434081 z"
         style="font-style:normal;font-variant:normal;font-weight:normal;font-stretch:normal;font-family:'Annie Use Your Telescope';-inkscape-font-specification:'Annie Use Your Telescope';stroke-width:0.264583"
         id="path36" />
      <path
         d="m 68.329673,50.565632 q 0.124023,0 0.206705,-0.01033 0.09302,-0.01034 0.155029,0.103352 0.03101,0.465087 0.07235,0.950844 0.04134,0.475421 0.08268,0.961178 0.04134,0.485757 0.05168,0.981849 0.02067,0.485757 0.01033,0.950844 0,0.06201 -0.03101,0.07235 -0.03101,0.02067 -0.09302,0.01034 -0.05168,0 -0.134358,-0.01034 -0.07235,0 -0.165364,0.02067 z m -0.599445,-1.85001 q 0,-0.07235 0.01033,-0.155029 0.01034,-0.09302 0.04134,-0.165364 0.04134,-0.07235 0.09302,-0.124023 0.06201,-0.05168 0.144693,-0.05168 0.124023,0 0.248046,0.01034 0.124023,0.01034 0.237711,0.05168 0.113688,0.03101 0.186035,0.113688 0.07235,0.07235 0.07235,0.21704 0,0.248046 -0.186034,0.444416 -0.186035,0.186034 -0.454751,0.186034 -0.206705,0 -0.299723,-0.155028 -0.09302,-0.165364 -0.09302,-0.372069 z m 0.599445,0.05168 q -0.03101,0 -0.03101,0.05168 0,0.05168 0.03101,0.05168 0.04134,0 0.04134,-0.05168 0,-0.05168 -0.04134,-0.05168 z"
         style="font-style:normal;font-variant:normal;font-weight:normal;font-stretch:normal;font-family:'Annie Use Your Telescope';-inkscape-font-specification:'Annie Use Your Telescope';stroke-width:0.264583"
         id="path38" />
      <path
         d="m 69.879961,53.738555 q 0.186034,0 0.341063,0.07235 0.165364,0.07235 0.320393,0.165364 0.155029,0.08268 0.310057,0.155028 0.165364,0.06201 0.351399,0.06201 0.21704,0 0.444416,-0.07235 0.237711,-0.08268 0.434081,-0.21704 0.196369,-0.144694 0.320392,-0.341064 0.124023,-0.206705 0.124023,-0.444415 0.01034,-0.07235 0,-0.1757 0,-0.103352 -0.06201,-0.206705 -0.06201,-0.113688 -0.206705,-0.206705 -0.144694,-0.103352 -0.423746,-0.155029 -0.268716,-0.05168 -0.682126,-0.05168 -0.41341,-0.01034 -1.02319,0.07235 -0.155029,0 -0.299723,-0.08268 -0.144693,-0.09302 -0.258381,-0.217041 -0.113688,-0.134358 -0.186035,-0.279051 -0.07235,-0.155029 -0.07235,-0.289388 0,-0.403074 0.165364,-0.65112 0.175699,-0.258382 0.444416,-0.403075 0.268716,-0.155029 0.599444,-0.217041 0.330728,-0.06201 0.671792,-0.06201 0.155029,0 0.351398,0.02067 0.206705,0.01034 0.37207,0.08268 0.175699,0.06201 0.289387,0.206705 0.124023,0.144694 0.124023,0.403075 -0.02067,0.1757 -0.06201,0.217041 -0.03101,0.03101 -0.103352,-0.02067 -0.06201,-0.06201 -0.155029,-0.165364 -0.09302,-0.103352 -0.227376,-0.19637 -0.124023,-0.103352 -0.310057,-0.155029 -0.1757,-0.05168 -0.403075,0 -0.237711,0 -0.475422,0.05168 -0.237711,0.04134 -0.434081,0.155028 -0.186034,0.113688 -0.310057,0.310058 -0.113688,0.19637 -0.113688,0.496092 0,0.155029 0.134358,0.217041 0.144694,0.05168 0.372069,0.05168 0.237711,0 0.527098,-0.01033 0.299723,-0.02067 0.60978,-0.02067 0.310058,0 0.599445,0.05168 0.289387,0.04134 0.506427,0.186035 0.227376,0.134358 0.351399,0.39274 0.124023,0.258381 0.09302,0.671791 0,0.299722 -0.175699,0.568439 -0.165364,0.268717 -0.434081,0.475422 -0.258381,0.196369 -0.578774,0.310057 -0.320393,0.113688 -0.620115,0.08268 -0.124023,-0.01033 -0.341063,-0.06201 -0.206705,-0.06201 -0.413411,-0.165364 -0.196369,-0.103353 -0.341063,-0.248046 -0.144693,-0.155029 -0.144693,-0.361734 z"
         style="font-style:normal;font-variant:normal;font-weight:normal;font-stretch:normal;font-family:'Annie Use Your Telescope';-inkscape-font-specification:'Annie Use Your Telescope';stroke-width:0.264583"
         id="path40" />
      <path
         d="m 73.755681,47.837125 q 0.04134,0.372069 0.08268,0.82682 0.05168,0.444416 0.08268,0.919838 0.03101,0.465086 0.04134,0.940508 0.01034,0.465086 -0.01033,0.878496 0.165364,-0.144693 0.299722,-0.248046 0.144694,-0.113687 0.279052,-0.196369 0.144693,-0.08268 0.279052,-0.124023 0.144693,-0.04134 0.330728,-0.04134 0.372069,0 0.682127,0.186035 0.310057,0.175699 0.527098,0.475422 0.21704,0.289387 0.330728,0.651121 0.124023,0.351398 0.124023,0.692462 -0.02067,0.578774 -0.237711,0.930173 -0.21704,0.341063 -0.578774,0.527097 -0.351399,0.186035 -0.837156,0.217041 -0.475422,0.03101 -1.002519,-0.01033 v -0.485757 q 0.186034,0.165364 0.341063,0.196369 0.155029,0.02067 0.372069,0.02067 0.341063,0 0.620115,-0.103353 0.279052,-0.103352 0.475422,-0.289387 0.206705,-0.19637 0.310057,-0.465086 0.113688,-0.268717 0.113688,-0.58911 0,-0.279051 -0.03101,-0.496092 -0.03101,-0.21704 -0.144694,-0.392739 -0.103353,-0.1757 -0.310058,-0.330729 -0.206705,-0.165364 -0.558103,-0.320392 -0.02067,-0.01034 -0.09302,-0.01034 -0.07235,-0.01033 -0.103352,-0.01033 -0.165364,0 -0.330728,0.103353 -0.165364,0.09302 -0.299723,0.248046 -0.134358,0.144693 -0.227375,0.330728 -0.09302,0.175699 -0.134358,0.330728 -0.02067,0.124023 -0.06201,0.444416 -0.03101,0.310057 -0.08268,0.671791 -0.04134,0.361734 -0.07235,0.682127 -0.03101,0.320393 -0.05168,0.444416 l -0.320393,-0.06201 -0.206705,-6.542215 z"
         style="font-style:normal;font-variant:normal;font-weight:normal;font-stretch:normal;font-family:'Annie Use Your Telescope';-inkscape-font-specification:'Annie Use Your Telescope';stroke-width:0.264583"
         id="path42" />
      <path
         d="m 77.217992,50.544961 q 0.124023,-0.05168 0.21704,-0.02067 0.09302,0.03101 0.155029,0.113688 0.06201,0.08268 0.09302,0.19637 0.03101,0.103352 0.05168,0.206705 0.134359,-0.227376 0.382405,-0.361734 0.258381,-0.144694 0.547768,-0.186035 0.289387,-0.05168 0.578774,-0.02067 0.289388,0.02067 0.485757,0.124023 0.206705,0.09302 0.289387,0.268716 0.08268,0.165364 -0.04134,0.39274 -0.268716,-0.155029 -0.568439,-0.248046 -0.289387,-0.09302 -0.568438,-0.06201 -0.279052,0.03101 -0.516763,0.217041 -0.237711,0.175699 -0.39274,0.568439 -0.155029,0.392739 -0.19637,1.04386 -0.031,0.640786 0.09302,1.601964 h -0.39274 q 0,0 -0.02067,-0.165364 -0.01034,-0.175699 -0.03101,-0.454751 -0.01034,-0.279052 -0.04134,-0.620115 -0.02067,-0.341063 -0.04134,-0.692462 -0.02067,-0.351399 -0.04134,-0.671791 -0.01034,-0.330729 -0.03101,-0.568439 0,-0.03101 -0.01033,-0.124023 0,-0.09302 0,-0.19637 0,-0.113688 0,-0.206705 0,-0.09302 0,-0.134359 z"
         style="font-style:normal;font-variant:normal;font-weight:normal;font-stretch:normal;font-family:'Annie Use Your Telescope';-inkscape-font-specification:'Annie Use Your Telescope';stroke-width:0.264583"
         id="path44" />
      <path
         d="m 80.442589,53.686878 q 0,-0.589109 0.320393,-0.857826 0.330728,-0.268716 0.857826,-0.268716 0.206705,0 0.382405,0.01033 0.186034,0.01034 0.351398,0.05168 0.165364,0.04134 0.320393,0.124023 0.165364,0.08268 0.341064,0.237711 0,-0.03101 0,-0.124023 0.01033,-0.103352 0.01033,-0.21704 0,-0.113688 0,-0.206705 0,-0.103353 0,-0.144694 -0.01033,-0.186034 -0.01033,-0.475421 0,-0.299723 -0.05168,-0.60978 -0.04134,-0.310058 -0.186034,-0.58911 -0.134359,-0.279052 -0.444416,-0.423745 -0.21704,0 -0.403075,0.07235 -0.186035,0.07235 -0.372069,0.155028 -0.186035,0.08268 -0.372069,0.155029 -0.186035,0.06201 -0.403075,0.06201 0,-0.258382 0.155029,-0.423746 0.165364,-0.175699 0.392739,-0.268716 0.227376,-0.09302 0.475422,-0.124023 0.248046,-0.03101 0.434081,-0.03101 0.186034,0.03101 0.341063,0.07235 0.165364,0.04134 0.299722,0.165364 0.144694,0.124023 0.258382,0.382404 0.124023,0.248046 0.206705,0.702797 0.09302,0.454752 0.155029,1.157549 0.07235,0.692462 0.113687,1.705317 0.02067,0.134358 -0.09302,0.23771 -0.103353,0.09302 -0.289387,0.165364 -0.186035,0.06201 -0.423745,0.113688 -0.227376,0.04134 -0.465087,0.06201 -0.237711,0.02067 -0.454751,0.03101 -0.21704,0.01033 -0.361734,0.01033 -0.186034,0 -0.382404,-0.06201 -0.186035,-0.06201 -0.351399,-0.175699 -0.155029,-0.124023 -0.258381,-0.289387 -0.09302,-0.175699 -0.09302,-0.382405 z m 1.343583,-0.723467 q -0.516762,0.144693 -0.723467,0.351398 -0.206705,0.19637 -0.186035,0.382405 0.03101,0.186034 0.248046,0.341063 0.217041,0.144694 0.527098,0.19637 0.310058,0.04134 0.671792,-0.05168 0.361733,-0.103353 0.692462,-0.39274 -0.124023,-0.299722 -0.248046,-0.454751 -0.124024,-0.165364 -0.268717,-0.248046 -0.144694,-0.08268 -0.320393,-0.103353 -0.175699,-0.02067 -0.39274,-0.02067 z"
         style="font-style:normal;font-variant:normal;font-weight:normal;font-stretch:normal;font-family:'Annie Use Your Telescope';-inkscape-font-specification:'Annie Use Your Telescope';stroke-width:0.264583"
         id="path46" />
      <path
         d="m 84.173615,54.524034 q -0.02067,-0.165364 -0.04134,-0.475422 -0.01034,-0.320392 -0.03101,-0.713132 -0.01033,-0.403075 -0.02067,-0.837156 -0.01033,-0.43408 -0.02067,-0.82682 -0.01033,-0.39274 -0.03101,-0.702797 -0.01033,-0.320393 -0.04134,-0.485757 0,-0.01034 -0.01033,-0.05168 0,-0.04134 -0.01033,-0.09302 0,-0.05168 0,-0.08268 0,-0.04134 0,-0.06201 0.155028,-0.124023 0.258381,-0.08268 0.113688,0.04134 0.186034,0.186034 0.07235,0.134359 0.103353,0.341064 0.03101,0.206705 0.04134,0.41341 0.02067,0.206705 0.02067,0.382404 0,0.165364 0,0.237711 0.02067,-0.175699 0.06201,-0.41341 0.04134,-0.237711 0.124023,-0.485757 0.08268,-0.248046 0.19637,-0.485757 0.124023,-0.248046 0.299722,-0.434081 0.1757,-0.186034 0.39274,-0.289387 0.227375,-0.103352 0.516763,-0.08268 0.454751,0.02067 0.744138,0.248046 0.299722,0.227376 0.465086,0.60978 0.1757,0.382405 0.248046,0.878497 0.08268,0.496092 0.103353,1.054196 0.03101,0.558103 0.02067,1.136878 -0.01033,0.568439 -0.01033,1.095537 -0.09302,0.02067 -0.186034,0.07235 -0.09302,0.04134 -0.155029,0.03101 -0.06201,0 -0.09302,-0.08268 -0.02067,-0.09302 0.02067,-0.351399 0.01033,-0.186034 0.03101,-0.568439 0.03101,-0.392739 0.02067,-0.868161 0,-0.475421 -0.05168,-0.981849 -0.05168,-0.506427 -0.19637,-0.919837 -0.134358,-0.423746 -0.392739,-0.682127 -0.258382,-0.268717 -0.671792,-0.268717 -0.423745,0.175699 -0.713132,0.661456 -0.279052,0.485757 -0.454752,1.136878 -0.165364,0.651121 -0.248046,1.41593 -0.07235,0.754474 -0.08268,1.477941 -0.02067,-0.01033 -0.08268,-0.01033 -0.05168,0 -0.124023,0 -0.06201,-0.01034 -0.124023,-0.02067 -0.05168,-0.01034 -0.06201,-0.02067 z"
         style="font-style:normal;font-variant:normal;font-weight:normal;font-stretch:normal;font-family:'Annie Use Your Telescope';-inkscape-font-specification:'Annie Use Your Telescope';stroke-width:0.264583"
         id="path48" />
      <path
         d="m 88.039001,53.077099 q 0,-0.279052 0.09302,-0.60978 0.09302,-0.341064 0.268716,-0.620116 0.1757,-0.289387 0.423746,-0.475421 0.248046,-0.186035 0.578774,-0.186035 0.248046,0 0.43408,0.05168 0.19637,0.04134 0.361734,0.155029 0.1757,0.103353 0.320393,0.258382 0.155029,0.144693 0.320393,0.341063 l -0.06201,-5.301985 q 0.279051,-0.103353 0.341063,-0.08268 0.07235,0.02067 0.07235,0.175699 0,0.02067 -0.01034,0.06201 0,0.04134 0,0.05168 -0.01034,0.19637 -0.02067,0.558104 0,0.361733 0,0.837155 0.01033,0.475422 0.02067,1.033525 0.01034,0.547769 0.02067,1.116208 0.01033,0.558104 0.02067,1.116207 0.02067,0.547769 0.02067,1.02319 0.01033,0.475422 0,0.847491 0,0.361734 -0.01033,0.547769 -0.113688,0.23771 -0.320393,0.361733 -0.19637,0.124024 -0.434081,0.186035 -0.227375,0.05168 -0.475421,0.06201 -0.248047,0.01033 -0.465087,0.01033 -0.692462,0 -1.095537,-0.403075 -0.403075,-0.41341 -0.403075,-1.116207 z m 0.413411,-0.279052 q 0,0.258381 0.04134,0.516762 0.04134,0.248046 0.144693,0.444416 0.103353,0.19637 0.289387,0.320393 0.186035,0.113688 0.475422,0.113688 0.175699,0 0.423745,0 0.248046,0 0.475422,-0.05168 0.227375,-0.06201 0.382404,-0.186035 0.155029,-0.124023 0.155029,-0.351399 0,-0.268716 -0.08268,-0.609779 -0.07235,-0.351399 -0.237711,-0.661457 -0.155029,-0.320393 -0.403075,-0.537433 -0.237711,-0.227375 -0.568439,-0.227375 -0.21704,0 -0.41341,0.113687 -0.19637,0.113688 -0.351398,0.289387 -0.144694,0.1757 -0.237711,0.39274 -0.09302,0.21704 -0.09302,0.434081 z"
         style="font-style:normal;font-variant:normal;font-weight:normal;font-stretch:normal;font-family:'Annie Use Your Telescope';-inkscape-font-specification:'Annie Use Your Telescope';stroke-width:0.264583"
         id="path50" />
      <path
         d="m 91.790697,54.182971 q -0.04134,-0.155029 0,-0.237711 0.05168,-0.09302 0.134358,-0.134358 0.08268,-0.04134 0.186035,-0.04134 0.103352,-0.01034 0.186034,-0.01034 0.07235,0 0.175699,0.01034 0.103353,0 0.186035,0.04134 0.08268,0.04134 0.124023,0.134358 0.04134,0.08268 0,0.237711 -0.01033,0.07235 -0.06201,0.144693 -0.05168,0.06201 -0.124024,0.124023 -0.06201,0.06201 -0.144693,0.103353 -0.08268,0.04134 -0.155029,0.04134 -0.08268,0 -0.165364,-0.04134 -0.08268,-0.04134 -0.155029,-0.103353 -0.07235,-0.06201 -0.124023,-0.124023 -0.04134,-0.07235 -0.06201,-0.144693 z"
         style="font-style:normal;font-variant:normal;font-weight:normal;font-stretch:normal;font-family:'Annie Use Your Telescope';-inkscape-font-specification:'Annie Use Your Telescope';stroke-width:0.264583"
         id="path52" />
      <path
         d="m 93.185956,52.808382 q 0,-0.382404 0.124023,-0.847491 0.124023,-0.465086 0.361734,-0.857826 0.23771,-0.403075 0.589109,-0.671791 0.351399,-0.268717 0.816485,-0.268717 0.237711,-0.03101 0.382404,0.05168 0.144694,0.07235 0.217041,0.237711 0.08268,0.165364 0.103352,0.382405 0.03101,0.206705 0.03101,0.43408 0.01033,0.21704 0,0.41341 0,0.186035 0.02067,0.310058 h -0.258382 q -0.01033,-0.06201 -0.04134,-0.289387 -0.02067,-0.237711 -0.08268,-0.485757 -0.06201,-0.248046 -0.175699,-0.444416 -0.103353,-0.19637 -0.299722,-0.19637 -0.289388,0 -0.547769,0.227376 -0.248046,0.227375 -0.434081,0.547768 -0.186034,0.320393 -0.299722,0.661456 -0.113688,0.341064 -0.113688,0.568439 0.01034,0.258382 0.07235,0.568439 0.06201,0.299723 0.19637,0.547769 0.144693,0.248046 0.372069,0.403075 0.227376,0.155028 0.558104,0.09302 0.248046,0 0.475421,-0.103353 0.227376,-0.103352 0.444416,-0.21704 0.217041,-0.113688 0.434081,-0.21704 0.227376,-0.103353 0.475422,-0.103353 0,0.268717 -0.19637,0.475422 -0.19637,0.19637 -0.485757,0.320393 -0.279052,0.124023 -0.599445,0.186034 -0.310057,0.06201 -0.527098,0.06201 -0.351398,0 -0.651121,-0.144694 -0.289387,-0.144693 -0.506427,-0.382404 -0.21704,-0.248046 -0.341064,-0.568439 -0.113687,-0.330728 -0.113687,-0.692462 z"
         style="font-style:normal;font-variant:normal;font-weight:normal;font-stretch:normal;font-family:'Annie Use Your Telescope';-inkscape-font-specification:'Annie Use Your Telescope';stroke-width:0.264583"
         id="path54" />
      <path
         d="m 97.113357,52.684359 q 0,-0.237711 0.04134,-0.547769 0.04134,-0.320392 0.134358,-0.640785 0.09302,-0.320393 0.227376,-0.630451 0.144693,-0.310057 0.341063,-0.547768 0.19637,-0.248046 0.454751,-0.39274 0.258382,-0.155029 0.578774,-0.155029 0.330728,0 0.60978,0.227376 0.289387,0.227376 0.485757,0.589109 0.206704,0.361734 0.310054,0.80615 0.10336,0.444416 0.0827,0.868162 0,0.620115 -0.23771,1.105872 -0.237716,0.485757 -0.609785,0.785479 -0.361734,0.299722 -0.785479,0.403075 -0.41341,0.103352 -0.785479,-0.05168 -0.361734,-0.165365 -0.60978,-0.60978 -0.237711,-0.444416 -0.237711,-1.209225 z m 0.382404,0.04134 q 0.03101,0.63045 0.21704,0.971514 0.186035,0.341063 0.444416,0.454751 0.268717,0.103352 0.578775,0 0.310057,-0.103353 0.578774,-0.361734 0.268716,-0.268717 0.454751,-0.661456 0.19637,-0.403075 0.21704,-0.899167 0.02067,-0.372069 -0.06201,-0.723468 -0.07235,-0.351399 -0.217041,-0.620115 -0.134358,-0.279052 -0.341063,-0.434081 -0.19637,-0.165364 -0.454751,-0.165364 -0.248046,0 -0.444416,0.124023 -0.19637,0.124023 -0.361734,0.341063 -0.155029,0.206706 -0.268716,0.475422 -0.113688,0.268717 -0.19637,0.537433 -0.07235,0.268717 -0.113688,0.527098 -0.03101,0.248046 -0.03101,0.434081 z"
         style="font-style:normal;font-variant:normal;font-weight:normal;font-stretch:normal;font-family:'Annie Use Your Telescope';-inkscape-font-specification:'Annie Use Your Telescope';stroke-width:0.264583"
         id="path56" />
      <path
         d="m 100.89605,50.544961 q 0.12403,0 0.26872,0.06201 0.14469,0.06201 0.20671,0.248046 0.0827,-0.351399 0.24804,-0.568439 0.1757,-0.21704 0.39274,-0.299722 0.22738,-0.08268 0.46509,-0.05168 0.24804,0.02067 0.45475,0.144694 0.21704,0.124023 0.37207,0.320393 0.16536,0.19637 0.22737,0.454751 0.11369,-0.320393 0.29973,-0.589109 0.19637,-0.279052 0.42374,-0.465087 0.23771,-0.186034 0.48576,-0.258381 0.25838,-0.07235 0.47542,0.01033 0.22738,0.07235 0.39274,0.330728 0.1757,0.248046 0.24805,0.723468 0.0207,0.134358 0.0517,0.403075 0.031,0.258381 0.062,0.589109 0.0413,0.330728 0.0827,0.702798 0.0517,0.361733 0.0827,0.692462 0.0413,0.330728 0.0723,0.599444 0.031,0.258382 0.0517,0.382405 0,0.103352 -0.0103,0.227375 -0.0103,0.124023 -0.0517,0.21704 -0.031,0.08268 -0.11369,0.113688 -0.0724,0.02067 -0.22737,-0.09302 0,-0.124023 -0.031,-0.403075 -0.031,-0.279052 -0.062,-0.640786 -0.031,-0.372069 -0.0827,-0.775144 -0.0413,-0.41341 -0.093,-0.775144 -0.0413,-0.361734 -0.0724,-0.640785 -0.031,-0.279052 -0.062,-0.39274 -0.15503,-0.475422 -0.33073,-0.661456 -0.16536,-0.186035 -0.34106,-0.165364 -0.16536,0.02067 -0.32039,0.21704 -0.15503,0.19637 -0.27906,0.496092 -0.12402,0.299723 -0.23771,0.671792 -0.10335,0.361734 -0.16536,0.723467 -0.0517,0.361734 -0.0724,0.682127 -0.0103,0.320393 0.0413,0.527098 l -0.40307,0.08268 q 0.031,-0.992184 -0.0724,-1.622635 -0.093,-0.640785 -0.26871,-0.981849 -0.16537,-0.341063 -0.38241,-0.403075 -0.21704,-0.07235 -0.43408,0.08268 -0.2067,0.155029 -0.3824,0.516763 -0.1757,0.361734 -0.26872,0.878497 -0.0827,0.506427 -0.062,1.147213 0.0207,0.640785 0.21704,1.374588 h -0.39274 q 0,0 -0.031,-0.196369 -0.0207,-0.19637 -0.062,-0.496093 -0.031,-0.310057 -0.0724,-0.692461 -0.0413,-0.39274 -0.0827,-0.78548 -0.0413,-0.403075 -0.0827,-0.764809 -0.0413,-0.372069 -0.0724,-0.63045 0,-0.03101 0,-0.134358 0,-0.113688 0,-0.134359 z"
         style="font-style:normal;font-variant:normal;font-weight:normal;font-stretch:normal;font-family:'Annie Use Your Telescope';-inkscape-font-specification:'Annie Use Your Telescope';stroke-width:0.264583"
         id="path58" />
    </g>
  </g>
</svg>
